<svg xmlns="http://www.w3.org/2000/svg" viewBox="0 0 195.45 65.07"><defs><style>.cls-1{fill:#616161;}.cls-2{fill:#304ffe;}</style></defs><title>logo</title><g id="Capa_2" data-name="Capa 2"><g id="Capa_1-2" data-name="Capa 1"><path class="cls-1" d="M61.63,56.7a.29.29,0,0,1,.1-.23.3.3,0,0,1,.24-.1.34.34,0,0,1,.33.33v4a2.25,2.25,0,0,1-.69,1.65,2.22,2.22,0,0,1-1.65.69,2.26,2.26,0,0,1-1.66-.69,2.35,2.35,0,0,1,0-3.31A2.26,2.26,0,0,1,60,58.38a2.22,2.22,0,0,1,1.65.69l0,0Zm0,4a1.61,1.61,0,0,0-.49-1.19,1.67,1.67,0,0,0-2.36,0,1.68,1.68,0,0,0,0,2.37,1.67,1.67,0,0,0,2.36,0A1.6,1.6,0,0,0,61.63,60.73Z"/><path class="cls-1" d="M68.33,57.38a.42.42,0,0,1-.12.3.4.4,0,0,1-.29.12.41.41,0,0,1-.3-.12.42.42,0,0,1-.12-.3.4.4,0,0,1,.12-.29.38.38,0,0,1,.3-.13.37.37,0,0,1,.29.13A.4.4,0,0,1,68.33,57.38Zm-.75,1.34a.33.33,0,0,1,.1-.24.35.35,0,0,1,.24-.1.34.34,0,0,1,.33.34v4a.34.34,0,0,1-.33.34.35.35,0,0,1-.24-.1.33.33,0,0,1-.1-.24Z"/><path class="cls-1" d="M74.36,60.73a1.64,1.64,0,0,1-.53-.3,1,1,0,0,1-.3-.71,1,1,0,0,1,.31-.72,2.11,2.11,0,0,1,1.57-.62,2.33,2.33,0,0,1,1.8.84.29.29,0,0,1,.07.2.34.34,0,0,1-.34.34.28.28,0,0,1-.22-.09l-.12-.13a1.65,1.65,0,0,0-1.19-.49,1.44,1.44,0,0,0-1.1.44.41.41,0,0,0-.1.29.27.27,0,0,0,.2.26l2.06.69A1.48,1.48,0,0,1,77,61a1,1,0,0,1,.3.71,1,1,0,0,1-.31.72,2.12,2.12,0,0,1-1.58.62,2.3,2.3,0,0,1-1.79-.84.33.33,0,0,1,.27-.53.27.27,0,0,1,.22.08l.12.13a1.64,1.64,0,0,0,1.18.49A1.45,1.45,0,0,0,76.52,62a.43.43,0,0,0,.1-.29.27.27,0,0,0-.2-.26Z"/><path class="cls-1" d="M85.87,61.93a.34.34,0,0,1,.34.33.35.35,0,0,1-.1.24,2.34,2.34,0,0,1-3.87-1.77,2.35,2.35,0,0,1,4.69,0,.34.34,0,0,1-.34.33H82.94a1.66,1.66,0,0,0,.46.85,1.64,1.64,0,0,0,1.18.49,1.6,1.6,0,0,0,1.08-.4A.31.31,0,0,1,85.87,61.93Zm.36-1.54a1.68,1.68,0,0,0-1.65-1.34,1.64,1.64,0,0,0-1.18.49,1.66,1.66,0,0,0-.46.85Z"/><path class="cls-1" d="M91.87,58.72a.34.34,0,0,1,.34-.34.34.34,0,0,1,.33.34V59a2.12,2.12,0,0,1,1.51-.61,2.19,2.19,0,0,1,2.17,2.18v2.17a.34.34,0,0,1-.33.34.33.33,0,0,1-.24-.1.33.33,0,0,1-.1-.24V60.56a1.48,1.48,0,0,0-.44-1.07,1.46,1.46,0,0,0-1.06-.44,1.5,1.5,0,0,0-1.51,1.51v2.17a.34.34,0,0,1-.33.34.34.34,0,0,1-.34-.34Zm2.43-1.18a1.25,1.25,0,0,1-.88.34,1.28,1.28,0,0,1-1-.39.34.34,0,0,1,.24-.57.32.32,0,0,1,.23.09.66.66,0,0,0,.48.2.63.63,0,0,0,.41-.15,1.36,1.36,0,0,1,1.84.06.36.36,0,0,1,.09.24.34.34,0,0,1-.33.33.36.36,0,0,1-.24-.09.65.65,0,0,0-.47-.2A.68.68,0,0,0,94.3,57.54Z"/><path class="cls-1" d="M105.18,62.36a2.29,2.29,0,0,1-1.67.71,2.26,2.26,0,0,1-1.66-.69,2.35,2.35,0,0,1,0-3.31,2.35,2.35,0,0,1,4,1.66v2a.33.33,0,0,1-.1.24.33.33,0,0,1-.24.1.34.34,0,0,1-.33-.34Zm-1.67-3.31a1.62,1.62,0,0,0-1.18.49,1.68,1.68,0,0,0,0,2.37,1.62,1.62,0,0,0,1.18.49,1.64,1.64,0,0,0,1.18-.49,1.68,1.68,0,0,0,0-2.37A1.64,1.64,0,0,0,103.51,59.05Z"/><path class="cls-1" d="M114.81,56.7a.34.34,0,0,1,.33-.33.34.34,0,0,1,.34.33v4a2.34,2.34,0,0,1-4,1.65,2.35,2.35,0,0,1,0-3.31,2.33,2.33,0,0,1,3.31,0l0,0Zm0,4a1.61,1.61,0,0,0-.49-1.19,1.68,1.68,0,1,0,0,2.37A1.6,1.6,0,0,0,114.81,60.73Z"/><path class="cls-1" d="M125.11,60.73a2.36,2.36,0,1,1-.69-1.66A2.25,2.25,0,0,1,125.11,60.73Zm-2.34-1.68A1.68,1.68,0,1,0,124,61.91a1.68,1.68,0,0,0,0-2.37A1.64,1.64,0,0,0,122.77,59.05Z"/><path class="cls-1" d="M130.06,58.72a.36.36,0,0,1,.09-.24.34.34,0,0,1,.48,0,.36.36,0,0,1,.09.24v.37a2.3,2.3,0,0,1,1.68-.71,2.35,2.35,0,0,1,.89.17.42.42,0,0,1,.14.09.33.33,0,0,1,.1.24.29.29,0,0,1-.1.23.31.31,0,0,1-.24.1.32.32,0,0,1-.14,0,1.75,1.75,0,0,0-.65-.13,1.67,1.67,0,0,0-1.68,1.68v2a.36.36,0,0,1-.09.24.34.34,0,0,1-.48,0,.36.36,0,0,1-.09-.24Z"/><path class="cls-1" d="M149,56.7a.34.34,0,0,1,.33-.33.34.34,0,0,1,.34.33v4a2.36,2.36,0,1,1-.69-1.66l0,0Zm0,4a1.61,1.61,0,0,0-.49-1.19,1.68,1.68,0,1,0,0,2.37A1.6,1.6,0,0,0,149,60.73Z"/><path class="cls-1" d="M155.68,57.38a.42.42,0,0,1-.12.3.4.4,0,0,1-.29.12.41.41,0,0,1-.3-.12.42.42,0,0,1-.12-.3.4.4,0,0,1,.12-.29.38.38,0,0,1,.3-.13.37.37,0,0,1,.29.13A.4.4,0,0,1,155.68,57.38Zm-.75,1.34a.33.33,0,0,1,.1-.24.33.33,0,0,1,.24-.1.34.34,0,0,1,.33.34v4a.34.34,0,0,1-.33.34A.33.33,0,0,1,155,63a.33.33,0,0,1-.1-.24Z"/><path class="cls-1" d="M164.89,62.36v0a2.35,2.35,0,1,1,0-3.31,2.29,2.29,0,0,1,.68,1.66v2.34a1.77,1.77,0,0,1-.52,1.27,2.52,2.52,0,0,1-3.55,0,2.8,2.8,0,0,1-.45-.59.31.31,0,0,1,0-.17.34.34,0,0,1,.58-.24.36.36,0,0,1,.07.1,1.8,1.8,0,0,0,.32.42,1.83,1.83,0,0,0,2.6,0,1.24,1.24,0,0,0,.33-.79Zm-1.67-3.31a1.64,1.64,0,0,0-1.18.49,1.68,1.68,0,0,0,0,2.37,1.64,1.64,0,0,0,1.18.49,1.68,1.68,0,0,0,0-3.35Z"/><path class="cls-1" d="M171.6,57.38a.42.42,0,0,1-.12.3.44.44,0,0,1-.3.12.4.4,0,0,1-.29-.12.39.39,0,0,1-.13-.3.45.45,0,0,1,.42-.42.41.41,0,0,1,.3.13A.4.4,0,0,1,171.6,57.38Zm-.75,1.34a.36.36,0,0,1,.09-.24.34.34,0,0,1,.48,0,.36.36,0,0,1,.09.24v4a.36.36,0,0,1-.09.24.34.34,0,0,1-.48,0,.36.36,0,0,1-.09-.24Z"/><path class="cls-1" d="M179.14,62.4a.32.32,0,0,1,.23.09.34.34,0,0,1-.23.58,1.48,1.48,0,0,1-1.67-1.68V59.05h-.34a.34.34,0,0,1-.33-.33.34.34,0,0,1,.33-.34h.34V56.71a.32.32,0,0,1,.09-.23.34.34,0,0,1,.48,0,.32.32,0,0,1,.09.23v1.67h.68a.34.34,0,0,1,.33.34.34.34,0,0,1-.33.33h-.68v2.34A.9.9,0,0,0,179.14,62.4Z"/><path class="cls-1" d="M188.43,62.36a2.28,2.28,0,0,1-1.67.71,2.22,2.22,0,0,1-1.65-.69,2.33,2.33,0,0,1,0-3.31,2.22,2.22,0,0,1,1.65-.69,2.26,2.26,0,0,1,1.66.69,2.29,2.29,0,0,1,.68,1.66v2a.34.34,0,0,1-.33.34.35.35,0,0,1-.24-.1.33.33,0,0,1-.1-.24Zm-1.67-3.31a1.62,1.62,0,0,0-1.18.49,1.68,1.68,0,0,0,0,2.37,1.67,1.67,0,0,0,2.36,0,1.68,1.68,0,0,0,0-2.37A1.62,1.62,0,0,0,186.76,59.05Z"/><path class="cls-1" d="M194.05,56.71a.34.34,0,0,1,.33-.33.31.31,0,0,1,.24.1.29.29,0,0,1,.1.23V62.4h.33a.36.36,0,0,1,.24.09.34.34,0,0,1-.24.58h-.67a.34.34,0,0,1-.33-.34Z"/><path class="cls-1" d="M58.34,2.1a1.31,1.31,0,0,1,.39-1,1.34,1.34,0,0,1,1.89,0,1.31,1.31,0,0,1,.39,1V24.83h1.34a1.29,1.29,0,0,1,.94.4,1.25,1.25,0,0,1,.4.94,1.35,1.35,0,0,1-1.34,1.34H59.67a1.29,1.29,0,0,1-.94-.39,1.31,1.31,0,0,1-.39-.95Z"/><path class="cls-1" d="M79.16,23a1.34,1.34,0,0,1,1,2.29A9,9,0,0,1,74,27.51a9.35,9.35,0,0,1-9.36-9.36,9,9,0,0,1,2.74-6.62,9.34,9.34,0,0,1,13.24,0,9,9,0,0,1,2.74,6.62A1.33,1.33,0,0,1,82,19.48H67.44A6.71,6.71,0,0,0,74,24.83a6.33,6.33,0,0,0,4.31-1.58A1.36,1.36,0,0,1,79.16,23Zm1.42-6.15a6.7,6.7,0,0,0-11.3-3.39,6.47,6.47,0,0,0-1.84,3.39Z"/><path class="cls-1" d="M103.06,18.15a9.35,9.35,0,0,1-9.36,9.36,9,9,0,0,1-6.62-2.74,9,9,0,0,1-2.74-6.62,9,9,0,0,1,2.74-6.62,9.34,9.34,0,0,1,13.24,0A9,9,0,0,1,103.06,18.15ZM93.7,11.46A6.69,6.69,0,0,0,87,18.15a6.69,6.69,0,1,0,13.37,0,6.67,6.67,0,0,0-6.68-6.69Z"/><path class="cls-1" d="M104,10.12a1.25,1.25,0,0,1,.4-.94,1.3,1.3,0,0,1,1.88,0,1.25,1.25,0,0,1,.4.94v1.09a8.67,8.67,0,0,1,12.16.12,8.38,8.38,0,0,1,2.55,6.15v8.69a1.33,1.33,0,0,1-1.34,1.34,1.35,1.35,0,0,1-1.34-1.34V17.48a6,6,0,1,0-12,0v8.69a1.34,1.34,0,0,1-2.68,0Z"/><path class="cls-1" d="M138.42,24.7a9.37,9.37,0,0,1-13.31.07,9,9,0,0,1-2.74-6.62,9,9,0,0,1,2.74-6.62,9.34,9.34,0,0,1,13.24,0,9,9,0,0,1,2.74,6.62v8a1.31,1.31,0,0,1-.39.95,1.34,1.34,0,0,1-1.89,0,1.31,1.31,0,0,1-.39-.95Zm-6.69-13.24a6.67,6.67,0,0,0-6.68,6.69,6.69,6.69,0,1,0,13.37,0,6.69,6.69,0,0,0-6.69-6.69Z"/><path class="cls-1" d="M142.06,10.12a1.28,1.28,0,0,1,.39-.94,1.32,1.32,0,0,1,1.89,0,1.28,1.28,0,0,1,.39.94v1.47a9.15,9.15,0,0,1,6.69-2.81,9.52,9.52,0,0,1,3.59.67,2,2,0,0,1,.56.35,1.37,1.37,0,0,1,.38,1,1.28,1.28,0,0,1-.39.94,1.31,1.31,0,0,1-.95.39A1.27,1.27,0,0,1,154,12a6.71,6.71,0,0,0-2.61-.5,6.69,6.69,0,0,0-6.69,6.69v8a1.31,1.31,0,0,1-.39.95,1.34,1.34,0,0,1-1.89,0,1.31,1.31,0,0,1-.39-.95Z"/><path class="cls-1" d="M172.44,2.06a1.26,1.26,0,0,1,.4-.94,1.33,1.33,0,0,1,1.88,0,1.26,1.26,0,0,1,.4.94V18.15a9.35,9.35,0,0,1-9.36,9.36,9,9,0,0,1-6.62-2.74,9,9,0,0,1-2.75-6.62,9,9,0,0,1,2.75-6.62,9.34,9.34,0,0,1,13.24,0l.06.06Zm0,16.09a6.69,6.69,0,1,0-13.37,0,6.69,6.69,0,1,0,13.37,0Z"/><path class="cls-1" d="M194.8,18.15a9.36,9.36,0,1,1-18.72,0,9,9,0,0,1,2.74-6.62,9.34,9.34,0,0,1,13.24,0A9,9,0,0,1,194.8,18.15Zm-9.36-6.69a6.69,6.69,0,0,0-6.69,6.69,6.69,6.69,0,0,0,13.38,0,6.69,6.69,0,0,0-6.69-6.69Z"/><path class="cls-1" d="M72.23,50.44a1.33,1.33,0,0,1,1.34,1.34,1.37,1.37,0,0,1-.42,1,9.36,9.36,0,0,1-15.46-7.1,9.37,9.37,0,0,1,15.46-7.11,1.36,1.36,0,0,1,.47,1,1.35,1.35,0,0,1-1.34,1.34,1.32,1.32,0,0,1-.85-.3,6.65,6.65,0,0,0-9.11.3,6.69,6.69,0,0,0,4.73,11.42,6.38,6.38,0,0,0,4.36-1.64A1.32,1.32,0,0,1,72.23,50.44Z"/><path class="cls-1" d="M79.05,32.28a1.61,1.61,0,0,1-.5,1.18,1.63,1.63,0,0,1-2.35,0,1.61,1.61,0,0,1-.5-1.18,1.59,1.59,0,0,1,.5-1.17,1.63,1.63,0,0,1,2.35,0A1.59,1.59,0,0,1,79.05,32.28Zm-3,5.35a1.34,1.34,0,0,1,2.67,0v16a1.34,1.34,0,1,1-2.67,0Z"/><path class="cls-1" d="M91.71,28.27a1.34,1.34,0,0,1,0,2.68c-3.56,0-5.35,1.78-5.35,5.35v1h4a1.31,1.31,0,0,1,1,.39,1.3,1.3,0,0,1,.39,1,1.28,1.28,0,0,1-.39.94,1.32,1.32,0,0,1-1,.4h-4v13.7a1.34,1.34,0,1,1-2.67,0V40H82.35a1.29,1.29,0,0,1-.94-.4,1.25,1.25,0,0,1-.4-.94,1.35,1.35,0,0,1,1.34-1.34h1.34v-1Q83.69,28.28,91.71,28.27Z"/><path class="cls-1" d="M110.06,53.68a1.34,1.34,0,1,1-2.67,0V52.6a8.7,8.7,0,0,1-14.72-6.27v-8.7a1.3,1.3,0,0,1,.4-.94A1.28,1.28,0,0,1,94,36.3a1.31,1.31,0,0,1,.95.39,1.29,1.29,0,0,1,.39.94v8.7a6,6,0,0,0,12,0v-8.7a1.34,1.34,0,0,1,2.67,0Z"/><path class="cls-1" d="M125.53,50.47a1.35,1.35,0,0,1,1.34,1.34,1.33,1.33,0,0,1-.38.95A9.37,9.37,0,0,1,111,45.66a9.37,9.37,0,1,1,18.73,0,1.25,1.25,0,0,1-.4.94,1.29,1.29,0,0,1-.94.4H113.82a6.38,6.38,0,0,0,1.83,3.39,6.48,6.48,0,0,0,4.74,2,6.31,6.31,0,0,0,4.31-1.59A1.31,1.31,0,0,1,125.53,50.47ZM127,44.32a6.38,6.38,0,0,0-1.83-3.39,6.7,6.7,0,0,0-9.47,0,6.38,6.38,0,0,0-1.83,3.39Z"/><path class="cls-1" d="M130.71,37.63a1.33,1.33,0,0,1,1.34-1.33,1.28,1.28,0,0,1,.94.39,1.29,1.29,0,0,1,.39.94v1.09A8.7,8.7,0,0,1,148.1,45v8.69A1.35,1.35,0,0,1,146.76,55a1.31,1.31,0,0,1-.95-.39,1.3,1.3,0,0,1-.39-1V45a6,6,0,0,0-12,0v8.69a1.3,1.3,0,0,1-.39,1,1.28,1.28,0,0,1-.94.39,1.33,1.33,0,0,1-1.34-1.34Z"/><path class="cls-1" d="M158.42,52.35a1.34,1.34,0,0,1,0,2.67q-6.69,0-6.69-6.69V39H150.4a1.34,1.34,0,1,1,0-2.67h1.33V29.61a1.37,1.37,0,0,1,1.34-1.34,1.35,1.35,0,0,1,1.34,1.34V36.3h2.69a1.34,1.34,0,0,1,0,2.67h-2.69v9.36Q154.41,52.35,158.42,52.35Z"/><path class="cls-1" d="M175.23,50.47a1.35,1.35,0,0,1,1.34,1.34,1.3,1.3,0,0,1-.39.95,9.36,9.36,0,0,1-15.46-7.1,9.36,9.36,0,1,1,18.72,0,1.28,1.28,0,0,1-.39.94,1.3,1.3,0,0,1-.94.4h-14.6a6.73,6.73,0,0,0,6.57,5.35,6.34,6.34,0,0,0,4.32-1.59A1.31,1.31,0,0,1,175.23,50.47Zm1.42-6.15a6.7,6.7,0,0,0-11.3-3.39,6.47,6.47,0,0,0-1.84,3.39Z"/><path class="cls-1" d="M183.72,45.66a6,6,0,0,1-2.13-1.19,3.81,3.81,0,0,1-1.18-2.82,4,4,0,0,1,1.23-2.9,8.44,8.44,0,0,1,6.29-2.45,9.31,9.31,0,0,1,7.19,3.36,1.1,1.1,0,0,1,.25.78,1.3,1.3,0,0,1-.39,1,1.31,1.31,0,0,1-.95.39,1.16,1.16,0,0,1-.88-.35l-.49-.5a6.42,6.42,0,0,0-4.73-2,5.82,5.82,0,0,0-4.43,1.74,1.73,1.73,0,0,0-.4,1.15,1.13,1.13,0,0,0,.82,1.07l8.22,2.73a5.89,5.89,0,0,1,2.13,1.19,3.81,3.81,0,0,1,1.18,2.82,4,4,0,0,1-1.23,2.89A8.41,8.41,0,0,1,187.93,55a9.28,9.28,0,0,1-7.19-3.36,1.34,1.34,0,0,1,1.09-2.12,1.12,1.12,0,0,1,.88.35l.49.5a6.46,6.46,0,0,0,4.73,2,5.82,5.82,0,0,0,4.43-1.74,1.76,1.76,0,0,0,.4-1.16,1.15,1.15,0,0,0-.82-1.07Z"/><path class="cls-2" d="M55.68,27.84A27.84,27.84,0,1,0,27.84,55.68a25.5,25.5,0,0,0,7.77-1.11L28.54,39l-11,10V6.69L49.7,36.32H35.36L42,51.82A27.81,27.81,0,0,0,55.68,27.84Z"/></g></g></svg>